<?xml version="1.0" standalone="no"?>
<!DOCTYPE svg PUBLIC "-//W3C//DTD SVG 20010904//EN"
 "http://www.w3.org/TR/2001/REC-SVG-20010904/DTD/svg10.dtd">
<svg version="1.0" xmlns="http://www.w3.org/2000/svg"
 width="70.000000pt" height="70.000000pt" viewBox="0 0 70.000000 70.000000"
 preserveAspectRatio="xMidYMid meet">
<metadata>
Created by potrace 1.14, written by Peter Selinger 2001-2017
</metadata>
<g transform="translate(0.000000,70.000000) scale(0.100000,-0.100000)"
fill="#000000" stroke="none">
<path d="M252 594 c-12 -8 -22 -26 -22 -40 0 -23 -2 -24 -69 -24 -50 0 -74 -4
-85 -16 -19 -19 -18 0 -18 -213 -1 -169 0 -175 22 -193 20 -16 45 -18 275 -18
238 0 253 1 270 20 15 17 18 39 17 177 0 87 -1 170 -1 185 -2 45 -24 58 -102
58 -67 0 -69 1 -69 24 0 40 -34 56 -120 56 -52 0 -82 -5 -98 -16z m172 -20 c9
-3 16 -15 16 -25 0 -17 -8 -19 -90 -19 -81 0 -90 2 -90 18 0 10 3 22 7 25 8 9
136 9 157 1z m182 -85 c9 -15 11 -198 2 -212 -10 -16 -170 -17 -164 -1 9 23
-20 33 -96 33 -73 0 -95 -8 -97 -34 -1 -14 -151 -11 -160 3 -9 14 -6 196 3
211 10 15 502 16 512 0z m-193 -230 c11 -40 -2 -49 -63 -49 -48 0 -59 3 -62
18 -10 43 2 52 62 52 50 0 58 -3 63 -21z m-153 -52 l0 -28 92 3 c91 3 93 3 93
28 0 24 2 25 83 25 50 1 82 -3 83 -9 3 -27 0 -79 -5 -92 -5 -12 -46 -14 -256
-14 -156 1 -252 5 -256 11 -3 6 -7 32 -8 58 l-1 47 87 0 88 -1 0 -28z"/>
</g>
</svg>
