<?xml version="1.0" standalone="no"?>
<!DOCTYPE svg PUBLIC "-//W3C//DTD SVG 20010904//EN"
 "http://www.w3.org/TR/2001/REC-SVG-20010904/DTD/svg10.dtd">
<svg version="1.0" xmlns="http://www.w3.org/2000/svg"
 width="512.000000pt" height="512.000000pt" viewBox="0 0 512.000000 512.000000"
 preserveAspectRatio="xMidYMid meet">
<metadata>
Created by potrace 1.14, written by Peter Selinger 2001-2017
</metadata>
<g transform="translate(0.000000,512.000000) scale(0.100000,-0.100000)"
fill="#000000" stroke="none">
<path d="M2400 4789 c-299 -29 -636 -164 -696 -280 -11 -22 -14 -79 -14 -273
l0 -245 -722 -3 -723 -3 -52 -24 c-66 -29 -143 -111 -169 -176 -18 -47 -19
-82 -19 -660 0 -691 -3 -665 81 -755 l43 -47 3 -879 3 -879 22 -47 c30 -66
104 -141 166 -169 l52 -24 2185 0 2185 0 52 24 c62 28 136 103 166 169 l22 47
3 879 3 879 43 47 c84 90 81 64 81 755 0 578 -1 613 -19 660 -26 65 -103 147
-169 176 l-52 24 -722 3 -723 3 0 245 c0 271 -1 276 -65 333 -76 67 -304 160
-475 195 -159 32 -326 41 -490 25z m457 -358 c46 -11 119 -35 163 -52 l80 -30
0 -180 0 -179 -540 0 -540 0 0 179 0 180 80 31 c74 28 200 62 275 74 17 2 113
3 215 1 147 -2 202 -7 267 -24z m-30 -2394 l28 -27 0 -243 0 -242 -28 -57
c-68 -138 -223 -202 -370 -152 -64 22 -139 91 -168 156 -23 51 -24 61 -24 294
0 228 1 243 20 264 11 12 29 26 40 31 11 4 122 7 247 6 l228 -2 27 -28z"/>
</g>
</svg>
